<svg width="62" height="11" viewBox="0 0 62 11" fill="none" xmlns="http://www.w3.org/2000/svg">
<path fill-rule="evenodd" clip-rule="evenodd" d="M7.92571 0.189453L5.27864 7.08896L2.6467 0.189453H0L4.20815 10.7172H6.06684L10.4088 0.189453H7.92571Z" fill="#006EE5"/>
<path fill-rule="evenodd" clip-rule="evenodd" d="M12.9688 0.189453V10.7172H20.3891V8.57624H15.2889V6.4349H19.8537V4.29374H15.2889V2.3308H20.1214V0.189453H12.9688Z" fill="#006EE5"/>
<path fill-rule="evenodd" clip-rule="evenodd" d="M25.5469 4.54646H26.9146C27.1229 4.54646 27.3433 4.53908 27.5764 4.52414C27.8093 4.50919 28.0197 4.46454 28.2087 4.39037C28.3968 4.31602 28.5527 4.19947 28.6768 4.04073C28.8007 3.88237 28.8628 3.65931 28.8628 3.37173C28.8628 3.10401 28.8081 2.89097 28.6993 2.73224C28.5899 2.57407 28.4514 2.45222 28.2827 2.36803C28.1143 2.28384 27.9206 2.22689 27.7028 2.19718C27.4848 2.16729 27.2716 2.15234 27.0635 2.15234H25.5469V4.54646ZM23.2266 0.189453H27.3008C27.8366 0.189453 28.3444 0.241483 28.8251 0.345542C29.3061 0.44979 29.727 0.623285 30.089 0.866027C30.4511 1.10915 30.7381 1.43627 30.9517 1.8474C31.1648 2.25891 31.2711 2.77201 31.2711 3.38653C31.2711 4.12989 31.0781 4.762 30.6914 5.2823C30.3047 5.80278 29.7395 6.13256 28.996 6.27124L31.673 10.7172H28.8923L26.6914 6.50925H25.5465V10.7172H23.2266V0.189453Z" fill="#006EE5"/>
<path fill-rule="evenodd" clip-rule="evenodd" d="M34.3203 10.7172H36.6403V0.189453H34.3203V10.7172Z" fill="#006EE5"/>
<path fill-rule="evenodd" clip-rule="evenodd" d="M40.2383 0.189453H43.3909L47.8664 7.50557H47.8965V0.189453H50.2162V10.7174H47.1826L42.5877 3.22287H42.5582V10.7174H40.2383V0.189453Z" fill="#006EE5"/>
<path fill-rule="evenodd" clip-rule="evenodd" d="M55.7305 2.2415H52.7266V0.189453H61.0541V2.2415H58.0506V10.7172H55.7305V2.2415Z" fill="#006EE5"/>
<path fill-rule="evenodd" clip-rule="evenodd" d="M60.2383 9.92336H60.3191C60.3308 9.92336 60.3437 9.92279 60.3573 9.92128C60.3711 9.91995 60.384 9.91674 60.3957 9.91163C60.4076 9.90633 60.4174 9.89801 60.4252 9.88685C60.4331 9.87587 60.4371 9.86036 60.4371 9.84068C60.4371 9.82082 60.4331 9.80549 60.4252 9.79433C60.4174 9.78316 60.4076 9.77503 60.3957 9.76973C60.384 9.76443 60.3711 9.76122 60.3573 9.75989C60.3437 9.75857 60.3308 9.75781 60.3191 9.75781H60.2383V9.92336ZM60.043 9.60352H60.3148C60.3358 9.60352 60.3646 9.60503 60.4015 9.60749C60.4382 9.61033 60.4743 9.61941 60.5097 9.63511C60.5453 9.65082 60.5761 9.67541 60.6022 9.70909C60.6285 9.74239 60.6416 9.79007 60.6416 9.85174C60.6416 9.8911 60.6365 9.92364 60.6259 9.94918C60.6155 9.97472 60.6019 9.99591 60.5854 10.0122C60.5691 10.0286 60.5502 10.0411 60.5285 10.0496C60.5067 10.0582 60.4847 10.0638 60.4624 10.0665L60.6594 10.3717H60.4526L60.2774 10.0763H60.2439V10.3717H60.043V9.60352ZM59.7891 9.9967C59.7891 10.073 59.8027 10.1447 59.8303 10.2122C59.8579 10.2799 59.896 10.3386 59.9446 10.3885C59.993 10.4385 60.0496 10.4782 60.1139 10.5075C60.1782 10.5372 60.2471 10.552 60.3207 10.552C60.3941 10.552 60.463 10.5372 60.5273 10.5075C60.5916 10.4782 60.6482 10.4385 60.6968 10.3885C60.7455 10.3386 60.7835 10.2799 60.8109 10.2122C60.8385 10.1447 60.8524 10.073 60.8524 9.9967C60.8524 9.92046 60.8385 9.84875 60.8109 9.78102C60.7835 9.71347 60.7455 9.65482 60.6968 9.60468C60.6482 9.55493 60.5916 9.51519 60.5273 9.48568C60.463 9.45616 60.3941 9.44141 60.3207 9.44141C60.2471 9.44141 60.1782 9.45616 60.1139 9.48568C60.0496 9.51519 59.993 9.55493 59.9446 9.60468C59.896 9.65482 59.8579 9.71347 59.8303 9.78102C59.8027 9.84875 59.7891 9.92046 59.7891 9.9967V9.9967ZM59.5898 9.99625C59.5898 9.89522 59.6091 9.80024 59.6479 9.71169C59.6865 9.62315 59.7391 9.54558 59.8055 9.47936C59.8717 9.41295 59.9493 9.36054 60.0379 9.32176C60.1264 9.28297 60.2212 9.26367 60.3224 9.26367C60.4235 9.26367 60.5184 9.28297 60.6068 9.32176C60.6955 9.36054 60.7729 9.41295 60.8393 9.47936C60.9057 9.54558 60.9581 9.62315 60.9969 9.71169C61.0355 9.80024 61.055 9.89522 61.055 9.99625C61.055 10.0973 61.0355 10.1921 60.9969 10.2808C60.9581 10.3693 60.9057 10.4469 60.8393 10.5131C60.7729 10.5794 60.6955 10.632 60.6068 10.6707C60.5184 10.7093 60.4235 10.7286 60.3224 10.7286C60.2212 10.7286 60.1264 10.7093 60.0379 10.6707C59.9493 10.632 59.8717 10.5794 59.8055 10.5131C59.7391 10.4469 59.6865 10.3693 59.6479 10.2808C59.6091 10.1921 59.5898 10.0973 59.5898 9.99625V9.99625Z" fill="#006EE5"/>
</svg>
